<svg version="1.2" xmlns="http://www.w3.org/2000/svg" viewBox="0 0 821 353" width="821" height="353">
	<title>LOGO MUN2 vectores-ai</title>
	<style>
		.s0 { fill: #8b132c;stroke: #ffffff;stroke-miterlimit:10;stroke-width: 8 } 
		.s1 { fill: #ffffff } 
	</style>
	<g id="Carpeta 1 copy">
		<g id="Capa 4">
			<path id="&lt;Path&gt;" class="s0" d="m768.2 180.1c0 77.4-62.8 140.2-140.2 140.2-77.4 0-140.2-62.8-140.2-140.2 0-77.4 62.8-140.2 140.2-140.2 77.4 0 140.2 62.8 140.2 140.2z"/>
		</g>
		<g id="Capa 5">
			<g id="&lt;Group&gt;">
				<g id="&lt;Group&gt;">
					<path id="&lt;Compound Path&gt;" class="s1" d="m567.1 248v-29.5q0-6.3 0.5-11.4 0.5-5.1 2.1-9.3 1.6-4.2 4.6-7.6 3-3.3 8.2-6.2 6.4-3.3 15.7-5 9.3-1.7 19.9-2.5 6.8-0.5 14.1-1 7.4-0.4 18.2-1.7 6.5-0.7 10.4-1.7 3.9-1 5.9-2.9 2-1.8 2.5-5 0.5-3.2 0.5-8.6 0-5.2-1-8.5-1-3.2-4.5-5-3.6-1.8-10.6-2.4-7.1-0.5-19.2-0.5-13.1 0-20.9 0.6-7.8 0.7-12 2.4-4.2 1.7-5.5 4.4-1.4 2.8-1.4 7 0 1.4 0 2.7 0 1.3 0.4 2.7h-25.9q-0.2-1.7-0.3-3.5-0.1-1.7-0.1-3.6 0-5.9 0.6-10.2 0.6-4.4 2-7.7 1.3-3.2 3.6-5.5 2.2-2.3 5.8-4 7-3.5 19.3-4.7 12.3-1.1 31.9-1.1 21.2 0 33.8 1.3 12.6 1.4 19.3 5 6.7 3.7 8.8 10.5 2.1 6.9 2.1 17.6 0 13.6-3.6 22.1-3.6 8.5-13.5 12.5-4.6 1.9-10.9 2.9-6.3 1.1-13.4 1.9-7.1 0.8-14.7 1.3-7.6 0.6-14.6 1.2-7.1 0.6-13.2 1.5-6.1 1-10.3 2.5-2.9 1-4.5 2.2-1.6 1.3-2.5 3.2-0.9 2-1.2 4.7-0.2 2.8-0.2 6.8v11.6h102.9v20.5z"/>
				</g>
				<g id="&lt;Group&gt;">
					<path id="&lt;Compound Path&gt;" class="s1" d="m515.6 201.9v-9.2h27.1v9.2z"/>
				</g>
			</g>
			<g id="&lt;Group&gt;">
				<path id="&lt;Compound Path&gt;" class="s1" d="m169.7 234.5v-34q0-5.9 0-10.1 0-4.3 0-7.4 0-3.1 0.1-5.4 0-2.2 0.1-4.1-0.9 1.7-2.1 3.7-1.2 2-2.9 4.6-1.6 2.7-3.7 6.2-2.1 3.5-4.9 7.9l-23.7 38.6h-16.3l-22.6-38.1q-2.6-4.2-4.3-7.2-1.8-3-3.2-5.5-1.4-2.5-2.7-4.9-1.4-2.4-2.9-5.3 0.1 3.3 0.1 6 0.1 2.6 0.1 5.5 0 2.9 0 6.6 0 3.6 0 9v33.9h-15.1v-74.7h23.5l35.8 61.5 37.2-61.5h22.4v74.7z"/>
				<path id="&lt;Compound Path&gt;" class="s1" d="m303.3 159.8h16.4v54.5q0 4.3-0.6 7.5-0.5 3.2-2.2 5.6-1.6 2.4-4.6 3.9-3 1.5-7.9 2.4-4.9 0.9-11.7 1.3-6.9 0.4-16.5 0.4-9.7 0-16.7-0.4-7-0.4-12-1.3-4.9-0.9-7.9-2.4-3.1-1.5-4.8-3.9-1.7-2.4-2.3-5.6-0.6-3.2-0.6-7.5v-54.5h16.1v54.5q0 2.7 1 4.3 1 1.7 4 2.7 3 1 8.5 1.4 5.5 0.4 14.6 0.4 9.1 0 14.5-0.4 5.3-0.4 8.2-1.4 2.8-1 3.7-2.7 0.8-1.6 0.8-4.3z"/>
				<path id="&lt;Compound Path&gt;" class="s1" d="m442.8 234.5l-39.4-39.7q-4.2-4.1-7.3-7.2-3.1-3.1-5.6-5.7-2.5-2.5-4.6-4.6-2.1-2.1-4.2-4.4 0.1 2.8 0.2 5.3 0 2.5 0.1 5.5 0 3.1 0 7.3 0 4.3 0 10.9v32.6h-15v-74.7h21.8l36.7 37.2q4.4 4.5 7.8 7.9 3.3 3.4 5.9 6 2.5 2.6 4.5 4.7 2 2.1 3.7 3.9-0.1-1.8-0.1-3.9-0.1-2.1-0.1-5.1 0-3.1 0-7.4 0-4.3 0-10.7v-32.6h15.4v74.7z"/>
			</g>
		</g>
	</g>
</svg>